# xmcd CD database file
# Copyright (C) 1993-1998 Ti Kan
#
# Track frame offsets:
#	182
#	13955
#	26882
#	38540
#	52625
#	66282
#	81082
#	96715
#	111492
#	125700
#	139992
#	152667
#	167577
#	181317
#	196237
#	209617
#	224622
#	239790
#	253675
#	267712
#
# Disc length: 3756 seconds
#
# Revision: 1
# Processed by: cddbd v1.4b41PL1 Copyright (c) Steve Scherf et al.
# Submitted via: CDValet v3.31 - Copyright (c) 1997 Greg Leichner
#
DISCID=3b0eaa14
DTITLE=Various Artist - Ladies Sing The Blues
DYEAR=1900
DGENRE=
TTITLE0=Blue Skies/Maxine Sullivan
TTITLE1=You Turned The Tables On Me/Helen Ward
TTITLE2=Baby Won't You Please Come Home?/Ella Fitzgerald
TTITLE3=Squeeze Me/Mildred Bailey
TTITLE4=I've Heard That Song Before/Helen Forrest
TTITLE5=Massachusetts/Anita O'Day
TTITLE6=Gimme A Pigfoot (And A Bottle Of Beer)/Bessie Smith
TTITLE7=How Long Has This Been Going On?/Peggy Lee
TTITLE8=The Blues I Love To Sing/Adelaide Hall
TTITLE9=Blues In The Night/Dinah Shore
TTITLE10=Don't worry 'Bout Me/Helen Humes
TTITLE11=He's Funny That Way/Thelma Carpenter
TTITLE12=Come Out Come Out Wherever You Are/Kay Starr
TTITLE13=Travelin' Light/Billie Holiday
TTITLE14=The Mood That I'm In/Valaida Snow
TTITLE15=I Got It Bad (And That Ain't Good)/Ivie Anderson
TTITLE16=Blitzkreig Baby/Una Mae Carlisle
TTITLE17=You've Got Me Crying Again/Lee Wiley
TTITLE18=Stormy Weather/Ethel Waters
TTITLE19=Our Love Was Mean't To Be/Edythe Wright
EXTD=Input by Bill (whall@netcomuk.co.uk)
EXTT0=
EXTT1=
EXTT2=
EXTT3=
EXTT4=
EXTT5=
EXTT6=
EXTT7=
EXTT8=
EXTT9=
EXTT10=
EXTT11=
EXTT12=
EXTT13=
EXTT14=
EXTT15=
EXTT16=
EXTT17=
EXTT18=
EXTT19=
PLAYORDER=
